#N canvas 1339 110 450 300 10;
#X obj 152 234 *~ 0.05;
#X obj 152 265 dac~;
#X obj 194 194 hsl 128 15 0 1 0 0 empty empty Gain -2 -8 0 10 -262144
-1 -1 0 1;
#X floatatom 191 214 5 0 0 0 - - -, f 5;
#X obj 41 219 readsf~;
#X obj 41 163 openpanel;
#X msg 41 188 open \$1;
#X msg 41 136 bang;
#N canvas 404 737 450 300 showsync 0;
#X obj 205 102 inlet~;
#X obj 205 159 snapshot~;
#X obj 325 121 metro 50;
#X obj 325 89 tgl 15 0 empty empty empty 17 7 0 10 -262144 -1 -1 1
1;
#X obj 325 22 loadbang;
#X msg 325 57 1;
#X obj 205 225 outlet;
#X connect 0 0 1 0;
#X connect 1 0 6 0;
#X connect 2 0 1 0;
#X connect 3 0 2 0;
#X connect 4 0 5 0;
#X connect 5 0 3 0;
#X restore 42 81 pd showsync;
#X obj 342 125 vu 15 120 empty empty -1 -8 0 10 -66577 -1 1 0;
#N canvas 0 22 450 300 meter 0;
#X obj 110 164 snapshot~;
#X obj 126 114 tgl 15 0 empty empty empty 17 7 0 10 -262144 -1 -1 1
1;
#X floatatom 110 187 5 0 0 0 - - -, f 5;
#X obj 110 91 env~ 1024;
#X obj 126 140 metro 100;
#X obj 109 211 - 100;
#X obj 231 46 loadbang;
#X msg 231 71 1;
#X obj 109 246 outlet;
#X obj 110 51 inlet~;
#X connect 0 0 2 0;
#X connect 1 0 4 0;
#X connect 2 0 5 0;
#X connect 3 0 0 0;
#X connect 4 0 0 0;
#X connect 5 0 8 0;
#X connect 6 0 7 0;
#X connect 7 0 1 0;
#X connect 9 0 3 0;
#X restore 341 82 pd meter;
#X floatatom 42 106 5 0 0 0 - - -, f 5;
#X obj 198 67 phasor~ 261;
#X obj 198 94 -~ 0.5;
#X msg 109 188 1;
#X text 77 140 load sf;
#X connect 0 0 1 0;
#X connect 0 0 1 1;
#X connect 2 0 3 0;
#X connect 3 0 0 1;
#X connect 5 0 6 0;
#X connect 6 0 4 0;
#X connect 7 0 5 0;
#X connect 8 0 11 0;
#X connect 10 0 9 0;
#X connect 12 0 13 0;
#X connect 14 0 4 0;
