#N canvas 862 639 490 378 10;
#X obj 144 173 pvgrain~;
#X obj 53 121 readsf~;
#X obj 53 65 openpanel;
#X msg 53 90 open \$1;
#X msg 53 38 bang;
#X msg 121 90 1;
#X text 89 42 load sf;
#X obj 53 213 *~;
#X floatatom 68 180 5 0 0 0 - - -, f 5;
#X obj 51 305 *~ 0.05;
#X obj 51 336 dac~;
#X obj 93 265 hsl 128 15 0 1 0 0 empty empty Gain -2 -8 0 10 -262144
-1 -1 0 1;
#X floatatom 90 285 5 0 0 0 - - -, f 5;
#N canvas 0 22 450 278 (subpatch) 0;
#X array pf 100 float 3;
#A 0 0 0 0 0 0 0 0 0 0 0 0 0 0 0 0 0 0 0 0 0 0 0 0 0 0 0 0 0 0 0 0
0 0 0 0 0 0 0 0 0 0 0 0 0 0 0 0 0 0 0 0 0 0 0 0 0 0 0 0 0 0 0 0 0 0
0 0 0 0 0 0 0 0 0 0 0 0 0 0 0 0 0 0 0 0 0 0 0 0 0 0 0 0 0 0 0 0 0 0
0;
#X coords 0 1 99 -1 200 140 1;
#X restore 255 28 graph;
#X obj 275 273 soundfiler;
#X msg 275 242 read ./sound/Piano.aif pf;
#X msg 260 200 read sound/Piano.aif pf;
#X connect 1 0 0 0;
#X connect 1 0 7 0;
#X connect 2 0 3 0;
#X connect 3 0 1 0;
#X connect 4 0 2 0;
#X connect 5 0 1 0;
#X connect 7 0 9 0;
#X connect 8 0 7 1;
#X connect 9 0 10 0;
#X connect 9 0 10 1;
#X connect 11 0 12 0;
#X connect 12 0 9 1;
#X connect 15 0 14 0;
#X connect 16 0 14 0;
