#N canvas 878 80 496 310 12;
#X obj 76 245 dac~;
#X obj 156 106 hsl 128 15 0 1 0 0 dummy \$0-main-gain Gain 48 8 0 11
-228856 -1 -1 0 1;
#X obj 76 181 *~;
#X obj 153 163 line~;
#X msg 153 140 \$1 10;
#X obj 153 187 *~;
#X obj 153 211 *~;
#X obj 76 62 inlet~;
#X obj 293 105 tgl 16 0 \$0-dsp \$0-dummy DSP 19 8 0 11 -228856 -1
-1 0 1;
#X obj 212 136 sel 0;
#X obj 244 162 != 0;
#X msg 293 134 \; pd dsp \$1;
#X text 213 205 A helper abstraction used in the documentation of FFTease.
, f 29;
#X connect 1 0 4 0;
#X connect 1 0 9 0;
#X connect 2 0 0 0;
#X connect 2 0 0 1;
#X connect 3 0 5 0;
#X connect 3 0 5 1;
#X connect 4 0 3 0;
#X connect 5 0 6 1;
#X connect 5 0 6 0;
#X connect 6 0 2 1;
#X connect 7 0 2 0;
#X connect 8 0 11 0;
#X connect 9 1 10 0;
#X connect 10 0 8 0;
#X coords 0 -1 1 1 185 26 2 150 100;
