#N canvas 600 60 783 643 12;
#N canvas 650 70 450 300 showsync 0;
#X obj 205 102 inlet~;
#X obj 205 159 snapshot~;
#X obj 325 121 metro 50;
#X obj 325 89 tgl 15 0 empty empty empty 17 7 0 10 -262144 -1 -1 1
1;
#X obj 325 22 loadbang;
#X msg 325 57 1;
#X obj 205 225 outlet;
#X connect 0 0 1 0;
#X connect 1 0 6 0;
#X connect 2 0 1 0;
#X connect 3 0 2 0;
#X connect 4 0 5 0;
#X connect 5 0 3 0;
#X restore 201 368 pd showsync;
#X floatatom 201 395 5 0 0 0 - - -;
#X msg 51 171 acquire_sample;
#N canvas 91 676 837 648 speed-and-phase 0;
#X msg 23 139 setspeed \$1;
#X floatatom 23 113 5 0 0 0 - - -;
#X obj 26 84 hsl 128 15 -2 2 0 0 empty empty empty -2 -8 0 10 -262144
-1 -1 6400 1;
#X text 20 67 change the global speed;
#X msg 327 352 setloops 300 2000;
#X msg 328 388 setloops 2000 5000;
#X msg 186 462 setloops 100 200;
#X msg 254 544 setloops 1000 1000;
#X msg 442 539 setloops 2000 2100;
#X msg 82 514 setloops 250 260;
#X msg 338 438 setloops 5000 10000;
#X msg 125 138 1;
#X msg 247 109 randspeed 0.5 0.9;
#X text 384 108 randomly set all speeds within min/max parameters;
#X msg 269 168 randspeed 0.1 10;
#X msg 292 288 restart_loops;
#X msg 343 195 randspeed 0.5 0.6;
#X msg 371 226 randspeed 0.005 0.02;
#X msg 418 253 randspeed 0.95 1.05;
#X obj 133 352 s loopsea-msgs;
#X msg 590 176 randspeed -1 -0.5;
#X obj 213 221 s loopsea-msgs;
#X msg 600 220 randspeed -1 -0.95;
#X msg 530 293 randspeed 2 4;
#X obj 125 111 loadbang;
#X connect 0 0 19 0;
#X connect 1 0 0 0;
#X connect 2 0 1 0;
#X connect 4 0 19 0;
#X connect 5 0 19 0;
#X connect 6 0 19 0;
#X connect 7 0 19 0;
#X connect 8 0 19 0;
#X connect 9 0 19 0;
#X connect 10 0 19 0;
#X connect 11 0 1 0;
#X connect 12 0 21 0;
#X connect 14 0 21 0;
#X connect 15 0 19 0;
#X connect 16 0 21 0;
#X connect 17 0 21 0;
#X connect 18 0 21 0;
#X connect 20 0 21 0;
#X connect 22 0 21 0;
#X connect 23 0 21 0;
#X connect 24 0 11 0;
#X restore 234 240 pd speed-and-phase;
#N canvas 942 775 672 504 oscbank 1;
#X msg 103 144 oscbank \$1;
#X obj 103 96 tgl 15 0 empty empty empty 17 7 0 10 -262144 -1 -1 0
1;
#X msg 190 140 transpose \$1;
#X floatatom 190 106 5 0 0 0 - - -;
#X obj 193 73 hsl 128 15 0.1 2 0 0 empty loopsea-transpose empty -2
-8 0 10 -262144 -1 -1 6016 1;
#X msg 312 184 synthresh \$1;
#X msg 312 146 0.001;
#X text 30 77 toggle oscbank;
#X text 182 43 transposition (oscbank only);
#X text 307 117 synthesis threshold (oscbank only);
#X msg 409 143 0.1;
#X msg 461 140 0.25;
#X msg 460 180 0.0001;
#X msg 295 238 randtransp 0.5 2;
#X msg 146 21 1;
#X msg 267 274 randtransp 0.95 1.05;
#X obj 103 241 s loopsea-msgs;
#X msg 172 345 randtransp 0.999 1.0001;
#X obj 491 269 metro 500;
#X obj 491 322 tgl 15 0 empty empty empty 17 7 0 10 -262144 -1 -1 0
1;
#X obj 486 365 sel 0 1;
#X obj 487 239 tgl 15 0 empty empty empty 17 7 0 10 -262144 -1 -1 0
1;
#X msg 56 421 transp_choose 1 0.5;
#X msg 232 416 transp_choose 1 1.25 1.5 1.875;
#X msg 278 392 transp_choose 0.6666 1 1.5;
#X msg 73 456 transp_choose 1 2 3 4 5;
#X msg 271 458 transp_choose 0.25 0.5 1 2 3;
#X connect 0 0 16 0;
#X connect 1 0 0 0;
#X connect 2 0 16 0;
#X connect 3 0 2 0;
#X connect 4 0 3 0;
#X connect 5 0 16 0;
#X connect 6 0 5 0;
#X connect 10 0 5 0;
#X connect 11 0 5 0;
#X connect 12 0 5 0;
#X connect 13 0 16 0;
#X connect 14 0 4 0;
#X connect 15 0 16 0;
#X connect 17 0 16 0;
#X connect 18 0 19 0;
#X connect 19 0 20 0;
#X connect 20 0 13 0;
#X connect 20 1 15 0;
#X connect 21 0 18 0;
#X connect 22 0 16 0;
#X connect 23 0 16 0;
#X connect 24 0 16 0;
#X connect 25 0 16 0;
#X connect 26 0 16 0;
#X restore 233 269 pd oscbank;
#X obj 101 229 ./sfplay~;
#X obj 101 576 ./gain.dsp~;
#X obj 20 33 ./icon;
#X text 410 67 - Spectral sample buffer;
#X text 330 328 <= args: sample duration in ms \, FFT size \, overlap
factor;
#X obj 388 33 cnv 15 100 30 empty empty fftease/loopsea~ 20 12 0 24
-262144 -1 0;
#X text 452 232 see also:;
#X obj 453 259 cnv 15 100 20 empty empty fftease/resent~ 20 12 0 14
-262144 -1 0;
#X text 239 394 show location into sample or recording progress;
#X text 161 170 capture input signal;
#X obj 185 440 hsl 128 15 1 10 0 0 empty loopsea-gain-boost gain_boost
-2 -8 0 10 -262144 -1 -1 0 1;
#X floatatom 182 460 5 0 0 0 - - -;
#X obj 101 329 fftease/loopsea~ 15000 1024 8;
#X text 18 94 [loopsea~] sets a loop for each bin in a stored series
of FFT frames., f 71;
#X obj 300 520 vu 15 80 empty empty -1 -8 0 10 -66577 -1 0 0;
#N canvas 1084 1068 450 300 init 1;
#X obj 150 35 loadbang;
#X msg 150 85 \; loopsea-transpose 1 \; loopsea-gain-boost 1;
#X connect 0 0 1 0;
#X restore 345 442 pd init;
#X obj 118 288 r loopsea-msgs;
#N canvas 0 23 688 632 amp-block 0;
#X obj 310 284 env~ 8192 4096;
#X obj 310 316 - 96;
#X obj 221 88 inlet~;
#X obj 360 113 inlet;
#X obj 219 181 *~ 1;
#X obj 222 357 outlet~;
#X obj 345 380 outlet;
#X connect 0 0 1 0;
#X connect 1 0 6 0;
#X connect 2 0 4 0;
#X connect 3 0 4 1;
#X connect 4 0 0 0;
#X connect 4 0 5 0;
#X restore 101 487 pd amp-block;
#N canvas 1268 280 1000 1017 loop-storage 0;
#X obj 34 -726 inlet;
#X msg 34 -600 readloops 2 3623 1 0.583667 1262 4133 1 0.858862 2097
4614 1 0.880115 1949 4206 1 0.877222 2243 5134 1 0.867004 509 3820
1 0.519958 1727 4397 1 0.872498 1745 5336 1 0.698718 1877 4478 1 0.805566
2710 5290 1 0.724341 1118 4057 1 0.633704 1290 4514 1 0.515991 2112
4408 1 0.511829 1823 5408 1 0.66969 453 4004 1 0.667346 631 4295 1
0.845618 1272 4104 1 0.650464 128 2035 1 0.622839 743 4207 1 0.729248
708 2841 1 0.869934 272 2885 1 0.865198 1028 4613 1 0.889172 1816 5381
1 0.698816 1164 3132 1 0.874194 1270 4822 1 0.517383 651 3145 1 0.719788
2551 5027 1 0.892554 1370 4709 1 0.670349 2423 5266 1 0.794397 1419
3756 1 0.842981 1695 5266 1 0.604895 2365 5184 1 0.848242 373 3233
1 0.782532 2899 5272 1 0.719788 2369 4568 1 0.549194 2876 5579 1 0.530396
1696 5444 1 0.656751 1261 4977 1 0.618787 1096 3977 1 0.721741 2877
5344 1 0.5245 981 3912 1 0.816199 143 3492 1 0.856421 1070 4650 1 0.609705
104 3604 1 0.742065 104 3268 1 0.631177 2375 4291 1 0.523425 125 3085
1 0.719373 1947 4410 1 0.702124 2193 4617 1 0.885974 403 2402 1 0.778906
1800 4845 1 0.5151 445 3575 1 0.849219 660 2997 1 0.780188 452 4082
1 0.620593 1719 4760 1 0.614868 736 3051 1 0.864185 1464 4511 1 0.556543
2464 5294 1 0.589551 1705 4272 1 0.517187 354 3911 1 0.716626 1255
4234 1 0.674927 943 4193 1 0.639771 666 4048 1 0.552612 3075 5106 1
0.559802 314 3683 1 0.802209 1913 5551 1 0.559448 2881 5581 1 0.532031
2231 5255 1 0.588831 871 4102 1 0.857873 2322 4891 1 0.673926 918 3224
1 0.578357 361 3500 1 0.648633 1264 4635 1 0.745142 1424 5117 1 0.696204
1521 5212 1 0.604224 189 2811 1 0.715723 11 3276 1 0.717602 1312 4671
1 0.658093 998 4332 1 0.827368 2363 4975 1 0.632764 3075 5199 1 0.706616
536 4067 1 0.790869 803 3532 1 0.842627 2006 5286 1 0.76322 325 2432
1 0.580408 252 2468 1 0.516235 1897 4446 1 0.658276 549 3368 1 0.768616
455 3356 1 0.891711 40 2809 1 0.503577 2253 5199 1 0.677014 1618 3607
1 0.563171 1359 4740 1 0.773926 1333 3847 1 0.783936 894 3940 1 0.689917
1867 4903 1 0.898096 1041 3596 1 0.586877 2418 5494 1 0.753552 505
3432 1 0.814001 729 2733 1 0.776062 720 3375 1 0.702039 554 4049 1
0.563452 1700 5047 1 0.691138 2495 4878 1 0.575903 569 3904 1 0.703699
545 3322 1 0.55979 279 3027 1 0.688733 3453 5620 1 0.724597 2613 5358
1 0.566077 2047 4267 1 0.679224 1505 4232 1 0.798474 2485 5123 1 0.603638
846 3918 1 0.5255 2729 4720 1 0.867969 847 3246 1 0.705847 1695 5205
1 0.718603 1649 4860 1 0.591101 288 3978 1 0.617163 1890 4188 1 0.582019
1288 3375 1 0.631628 333 3223 1 0.540576 2588 4886 1 0.639355 1067
4528 1 0.782849 1023 3000 1 0.782568 2435 4444 1 0.882519 1890 5462
1 0.88446 3075 5128 1 0.66875 1953 5252 1 0.885449 1946 3896 1 0.874915
2520 5460 1 0.500317 2784 5271 1 0.764136 1384 4975 1 0.690161 1825
5315 1 0.570032 977 4623 1 0.846057 925 3735 1 0.815247 794 4367 1
0.522693 1555 3440 1 0.858508 1115 3553 1 0.550916 177 2653 1 0.743372
1100 4111 1 0.613025 213 2866 1 0.69884 309 3672 1 0.836243 1608 4596
1 0.708081 766 2817 1 0.524231 2187 5366 1 0.631116 1164 4648 1 0.69585
751 3789 1 0.733936 2066 5001 1 0.74574 2845 5129 1 0.758252 1191 4878
1 0.571704 2003 5548 1 0.84978 1613 5330 1 0.879297 1380 3797 1 0.558325
2554 5055 1 0.51969 541 4014 1 0.776404 1942 5348 1 0.575415 38 3764
1 0.864563 1250 4096 1 0.563464 2335 4923 1 0.537366 681 3692 1 0.617798
178 3318 1 0.75835 619 4358 1 0.610242 438 3168 1 0.61156 600 2553
1 0.818518 2471 5479 1 0.683789 837 3354 1 0.720947 1641 3958 1 0.821997
1537 4260 1 0.711536 1411 5061 1 0.667871 1387 4145 1 0.745874 2877
5619 1 0.537573 1860 5444 1 0.826343 1655 3613 1 0.601062 221 3108
1 0.844641 728 4373 1 0.683936 2039 4725 1 0.83197 1319 3715 1 0.763782
1805 3938 1 0.829834 1842 3741 1 0.526575 747 3405 1 0.825647 570 3626
1 0.865662 1127 3911 1 0.677466 105 3159 1 0.77146 1069 3770 1 0.718652
1323 4586 1 0.674304 1854 4953 1 0.898706 1748 5024 1 0.535901 1046
3721 1 0.748645 2077 5090 1 0.683997 2100 5265 1 0.720789 1363 4989
1 0.511328 625 3700 1 0.651221 3711 5610 1 0.666772 455 2718 1 0.65614
1522 4327 1 0.817993 2015 4998 1 0.799744 1109 3011 1 0.717065 1261
3352 1 0.721509 938 4617 1 0.645496 2487 4461 1 0.721338 1563 5242
1 0.572644 59 3077 1 0.777136 769 3690 1 0.811328 1848 4962 1 0.788989
3337 5461 1 0.849744 47 3475 1 0.82738 2019 5570 1 0.850745 1075 4766
1 0.854932 1872 5569 1 0.817029 1215 4225 1 0.516479 2868 5209 1 0.835644
3208 5460 1 0.894421 2722 4679 1 0.859338 1774 5377 1 0.813013 875
4291 1 0.547266 1448 4652 1 0.679883 421 3049 1 0.663635 1828 3813
1 0.88512 1054 3163 1 0.807153 358 4015 1 0.517834 255 3480 1 0.661548
1252 4636 1 0.535339 406 3000 1 0.556116 1663 4296 1 0.605994 2652
5017 1 0.506348 1209 4629 1 0.584204 337 4003 1 0.696399 1935 5520
1 0.719739 776 4355 1 0.647681 2148 4628 1 0.724902 183 3894 1 0.631543
11 2703 1 0.556323 1824 4756 1 0.876282 1708 4637 1 0.824377 2540 5470
1 0.837878 820 3505 1 0.567932 1387 5132 1 0.82738 434 3523 1 0.852905
2353 5081 1 0.759363 335 3659 1 0.564099 1175 4460 1 0.703918 2420
5300 1 0.679394 112 2894 1 0.527161 2094 4911 1 0.643652 2341 5216
1 0.579675 1540 4694 1 0.833081 2095 5274 1 0.655115 1716 4848 1 0.510217
885 4025 1 0.644031 105 2181 1 0.553589 1184 4136 1 0.859729 375 3830
1 0.616956 2023 4949 1 0.732593 50 2066 1 0.593347 1099 3668 1 0.730701
2038 4779 1 0.729077 894 4404 1 0.632666 90 3661 1 0.722534 529 3674
1 0.669019 823 4078 1 0.805237 696 2969 1 0.725378 1168 4201 1 0.573596
1371 4705 1 0.788672 1261 4138 1 0.658594 870 4587 1 0.506018 43 2032
1 0.853699 2678 4820 1 0.896545 972 3340 1 0.875928 1493 4076 1 0.819568
373 3411 1 0.796387 3210 5350 1 0.864307 2128 5354 1 0.662524 2310
5608 1 0.872046 1252 4869 1 0.7354 1408 4337 1 0.612952 840 3488 1
0.505994 1027 4655 1 0.866553 1989 5618 1 0.837854 561 3959 1 0.894092
1749 4452 1 0.898303 2549 4458 1 0.879797 131 2295 1 0.678857 1387
4518 1 0.678259 957 3512 1 0.66377 536 3926 1 0.772522 68 3344 1 0.798645
171 2562 1 0.778625 341 3878 1 0.58523 16 3208 1 0.576501 599 3787
1 0.694751 2403 5272 1 0.679529 1251 4919 1 0.68252 2801 5567 1 0.52959
673 2902 1 0.667468 2239 5500 1 0.811731 1379 5057 1 0.647449 250 2709
1 0.769458 290 2490 1 0.580798 2455 4758 1 0.524243 1730 4107 1 0.51615
1283 3842 1 0.849487 1446 4223 1 0.777527 2144 5213 1 0.600085 837
4145 1 0.72793 1981 5618 1 0.577686 895 4241 1 0.595886 1414 4241 1
0.86073 191 3832 1 0.661707 1422 4371 1 0.861084 2431 5217 1 0.568665
255 3270 1 0.711914 481 3679 1 0.690076 1583 4700 1 0.865906 815 4060
1 0.788733 891 3664 1 0.886951 852 2978 1 0.550452 864 4199 1 0.575098
897 3872 1 0.856201 757 3948 1 0.786072 948 2987 1 0.555981 2149 4673
1 0.708423 548 3850 1 0.715735 575 3011 1 0.836499 871 4487 1 0.527551
83 3632 1 0.881177 1402 5150 1 0.662109 2220 5479 1 0.693384 1167 3395
1 0.73125 1117 4671 1 0.725623 1922 3797 1 0.604456 9 2132 1 0.579687
3376 5361 1 0.796838 1132 3320 1 0.668433 1040 4167 1 0.734375 1643
3878 1 0.584863 1523 5008 1 0.509253 1092 3870 1 0.8448 2746 5356 1
0.756628 2527 4517 1 0.606909 2180 5552 1 0.531702 1144 4696 1 0.587109
843 4321 1 0.738635 609 3495 1 0.866809 1917 4990 1 0.729883 1379 4860
1 0.711572 1712 5299 1 0.795105 1345 4693 1 0.530969 1980 4687 1 0.654675
1356 3928 1 0.584973 2165 4931 1 0.651209 2628 5078 1 0.799524 927
3550 1 0.766821 378 3217 1 0.718665 710 4141 1 0.532336 673 4394 1
0.846973 2496 4712 1 0.541125 1618 4080 1 0.660034 600 4217 1 0.606714
612 3623 1 0.517578 2997 5206 1 0.753516 1686 4391 1 0.549402 1799
5116 1 0.797546 2249 4397 1 0.707043 2612 5019 1 0.728088 2098 5268
1 0.549756 1090 4386 1 0.512134 1107 4810 1 0.550159 3007 5356 1 0.854211
68 2773 1 0.724829 2536 5074 1 0.899377 1414 4903 1 0.583252 1220 3218
1 0.671973 1669 4536 1 0.550818 1566 4914 1 0.795337 985 3868 1 0.648999
1988 5424 1 0.775073 1281 4912 1 0.573987 103 2379 1 0.60094 1660 4655
1 0.74751 261 2762 1 0.881299 689 3189 1 0.74104 2887 5040 1 0.591736
2378 4729 1 0.786426 391 2304 1 0.660925 739 3278 1 0.844373 1066 4752
1 0.833862 2283 4800 1 0.571143 226 2117 1 0.732458 2004 4012 1 0.66897
2000 5209 1 0.502075 857 3256 1 0.686499 1781 3714 1 0.662305 931 4082
1 0.87583 2141 5080 1 0.879602 1999 4824 1 0.874121 1512 4735 1 0.520752
1278 3904 1 0.560278 536 4186 1 0.55448 608 2529 1 0.74939 2190 4139
1 0.575537 1623 5021 1 0.596472 196 3277 1 0.814807 2169 5213 1 0.733862
424 2301 1 0.664111 2169 5276 1 0.79314 1049 4640 1 0.555347 156 2082
1 0.821472 931 3624 1 0.782031 1965 4679 1 0.639893 332 2594 1 0.587427
92 3353 1 0.848108 466 3839 1 0.75459 1153 4136 1 0.625305 958 3150
1 0.630261 967 4051 1 0.751111 2938 5326 1 0.594641 1371 3514 1 0.898669
2406 5473 1 0.639807 3150 5233 1 0.767297 1605 4865 1 0.737683 1655
3718 1 0.844214 1527 4238 1 0.540808 603 3797 1 0.870862 272 3601 1
0.843335 1346 4734 1 0.542041 1898 4871 1 0.708789 1961 5442 1 0.518066
2799 5574 1 0.628687 97 3133 1 0.598303 2619 5539 1 0.858069 1489 5008
1 0.62251 1426 4659 1 0.80929 2131 4852 1 0.794421 1317 5056 1 0.511279
266 2504 1 0.899988 2063 5518 1 0.848303 1467 4664 1 0.571826 1092
2994 1 0.5802 530 3752 1 0.591064 109 3778 1 0.692053 643 2934 1 0.805945
1212 4939 1 0.598535 1406 3326 1 0.605859 345 3861 1 0.55481 477 2430
1 0.614233 378 3628 1 0.898877 1536 4917 1 0.866504 2348 5592 1 0.872461
1657 3539 1 0.571948 567 4100 1 0.617969 814 3492 1 0.548035 1102 4069
1 0.760998 1135 4661 1 0.858093 1118 4857 1 0.669666 205 2622 1 0.647119
2755 5583 1 0.855627 1481 4956 1 0.778296 1618 4748 1 0.662659 1801
4476 1 0.725208 463 3816 1 0.875378 2488 5411 1 0.851575 3041 5038
1 0.727075 209 2615 1 0.557605 1128 3015 1 0.67384 1318 4508 1 0.756836
401 3095 1 0.7771 2131 5158 1 0.639258 114 2336 1 0.755444 874 3613
1 0.625354 1156 4519 1 0.720801 863 4411 1 0.709875 397 4099 1 0.701831
70 2632 1 0.862585 751 4239 1 0.892688 60 2989 1 0.857275 3332 5430
1 0.556372 2850 5006 1 0.544885 2396 4983 1 0.561646 1256 4457 1 0.636719
565 3590 1 0.810718 1783 5441 1 0.853345 902 4358 1 0.531665 1235 4234
1 0.740234 621 3047 1 0.614294 516 3249 1 0.664502 2677 4586 1 0.661877
724 3056 1 0.568323 2909 5145 1 0.542529 463 3967 1 0.505261 2879 5120
1 0.570361 2502 4848 1 0.819836 280 3717 1 0.544592 796 3403 1 0.818811
1691 4847 1 0.526013 1006 4665 1 0.508948 695 2768 1 0.609106 1269
3402 1 0.828992 2611 5364 1 0.701355 1848 5038 1 0.678833 2821 4937
1 0.720825 1142 3530 1 0.880371 1256 3811 1 0.775208 2893 5214 1 0.86366
3142 5599 1 0.685779 1335 4641 1 0.631604 2064 4440 1 0.830054 668
2887 1 0.671594 787 2724 1 0.540955 1854 4624 1 0.884082 1526 5170
1 0.636304 1621 3570 1 0.713989 800 3741 1 0.691992;
#X obj 34 -681 list prepend set;
#X obj 34 -657 list trim;
#X obj 688 -681 inlet;
#X text 171 -681 data dump in response to message "printloops";
#X obj 499 -559 s loopsea-msgs;
#X msg 499 -597 printloops;
#X text 583 -599 get current loop set;
#X obj 574 101 s loopsea-msgs;
#X connect 0 0 2 0;
#X connect 1 0 9 0;
#X connect 2 0 3 0;
#X connect 3 0 1 0;
#X connect 4 0 1 0;
#X connect 7 0 6 0;
#X restore 301 365 pd loop-storage;
#X connect 0 0 1 0;
#X connect 2 0 17 0;
#X connect 5 0 17 0;
#X connect 15 0 16 0;
#X connect 16 0 22 1;
#X connect 17 0 22 0;
#X connect 17 1 0 0;
#X connect 17 2 23 0;
#X connect 21 0 17 0;
#X connect 22 0 6 0;
#X connect 22 1 19 0;
