#N canvas 600 60 611 451 12;
#X obj 151 252 r pvtuner-msgs;
#N canvas 987 104 338 291 control 0;
#X obj 76 231 s pvtuner-msgs;
#X msg 76 153 basefreq \$1;
#X floatatom 76 121 5 0 0 0 - - -;
#X msg 177 161 interpolation \$1;
#X obj 177 134 tgl 15 0 empty empty empty 17 7 0 10 -262144 -1 -1 0
1;
#X obj 76 78 mtof;
#X floatatom 76 40 5 21 64 0 - pvtuner-scalestp -;
#X connect 1 0 0 0;
#X connect 2 0 1 0;
#X connect 3 0 0 0;
#X connect 4 0 3 0;
#X connect 5 0 2 0;
#X connect 6 0 5 0;
#X restore 386 310 pd control;
#X obj 166 293 sig~ 1;
#X obj 302 303 sig~ 0;
#X floatatom 302 277 5 0 1 0 - - -;
#X obj 305 252 hsl 128 15 0 1 0 0 empty pvtuner-interslide empty -2
-8 0 10 -228856 -1 -1 12700 1;
#X obj 114 211 noise~;
#X obj 219 294 sig~ 0.01;
#N canvas 855 163 395 610 scales 0;
#X obj 95 550 s pvtuner-msgs;
#X msg 118 153 minor_seventh_chord;
#X msg 132 181 diatonic;
#X msg 177 294 eq12;
#N canvas 433 202 604 288 werkmeisterIII 0;
#X msg 68 84 32.625 36.4726 40.9036 43.4989 48.7835 54.5367 61.357
65.25 72.9451 81.8072 86.9977 97.5671 109.073 122.714 130.5 145.89
163.614 173.995 195.134 218.147 245.428 261 291.78 327.229 347.991
390.268 436.294 490.856 522 583.561 654.458 695.982 780.537 872.588
981.712 1044 1167.12 1308.92 1391.96 1561.07 1745.18 1963.42 2088 2334.24
2617.83 2783.93 3122.15 3490.35 3926.85 4176 4668.49 5235.66 5567.86
6244.29 6980.7 7853.7;
#X obj 69 46 inlet;
#X obj 68 210 outlet;
#X connect 0 0 2 0;
#X connect 1 0 0 0;
#X restore 54 44 pd werkmeisterIII;
#X msg 71 71 added_sixth_minor;
#X msg 92 100 added_sixth_major;
#X msg 105 125 major_seventh_chord;
#X msg 188 320 pelog;
#X msg 217 408 slendro;
#X msg 204 381 pentaclust;
#X msg 223 438 pentatonic;
#X msg 197 353 quarterclust;
#X msg 168 264 eq8;
#X msg 146 209 eq5;
#X msg 156 237 eqn 7;
#X obj 54 19 bng 18 250 50 0 empty empty empty 17 7 0 10 -228856 -1
-1;
#X connect 1 0 0 0;
#X connect 2 0 0 0;
#X connect 3 0 0 0;
#X connect 4 0 0 0;
#X connect 5 0 0 0;
#X connect 6 0 0 0;
#X connect 7 0 0 0;
#X connect 8 0 0 0;
#X connect 9 0 0 0;
#X connect 10 0 0 0;
#X connect 11 0 0 0;
#X connect 12 0 0 0;
#X connect 13 0 0 0;
#X connect 14 0 0 0;
#X connect 15 0 0 0;
#X connect 16 0 4 0;
#X restore 386 288 pd scales;
#N canvas 739 94 450 300 init 0;
#X obj 108 104 loadbang;
#X msg 108 135 \; pvtuner-scalestp 21 \; pvtuner-interslide 1;
#X connect 0 0 1 0;
#X restore 386 332 pd init;
#X text 299 215 Interpolate between scales \, when interpolation is
on, f 27;
#X obj 114 334 fftease/pvtuner~ 2048 8;
#X obj 114 378 ./gain.dsp~;
#X text 62 124 [pvtuner~] allows you to impose an arbitrary tuning
scale on any input sound. Several scales are built into the object
\, and you can provide arbitrary tunings with a sorted list of numbers
representing Hz values., f 71;
#X obj 249 53 fftease/pvtuner~;
#X text 374 52 - Frequency-quantized oscillator bank resynthesis,
f 27;
#X obj 43 45 ./icon;
#X connect 0 0 11 0;
#X connect 2 0 11 1;
#X connect 3 0 11 3;
#X connect 4 0 3 0;
#X connect 5 0 4 0;
#X connect 6 0 11 0;
#X connect 7 0 11 2;
#X connect 11 0 12 0;
