#N canvas 600 60 574 425 12;
#X obj 101 255 r schmear-msgs;
#X obj 213 237 osc~ 140;
#N canvas 1092 277 472 423 vibrato 0;
#X obj 110 127 osc~ 0.3;
#X obj 110 173 *~ 50;
#X obj 109 214 +~ 100;
#X obj 109 261 *~;
#X obj 229 71 inlet;
#X obj 106 340 outlet~;
#X obj 107 303 +~ 140;
#X connect 0 0 1 0;
#X connect 1 0 2 0;
#X connect 2 0 3 0;
#X connect 3 0 6 0;
#X connect 4 0 3 1;
#X connect 6 0 5 0;
#X restore 213 202 pd vibrato;
#X obj 213 169 tgl 15 0 empty empty empty 17 7 0 10 -262144 -1 -1 0
1;
#N canvas 1290 542 450 300 impulses 0;
#X msg 27 90 schmimp 1;
#X msg 36 121 schmimp 0 0 0 0 0 0 0.25 0 0 1 1 1 1;
#X msg 46 146 schmimp 0 0 0 0 0 0 0 0 0 0 0 0 0 0 0 0 0 0.001 0 1 0
0 1 0 0 0 1;
#X msg 63 184 schmimp 0 0 0 0 0 0 0 0 0 0 1 0.1 0 1 0.1 0 0.1 1 0.1
0 0;
#X obj 41 247 s schmear-msgs;
#X text 92 92 no smear;
#X text 227 105 a few different kernels:;
#X connect 0 0 4 0;
#X connect 1 0 4 0;
#X connect 2 0 4 0;
#X connect 3 0 4 0;
#X restore 337 230 pd impulses;
#N canvas 1159 204 450 300 control 0;
#X obj 49 185 s schmear-msgs;
#X msg 51 135 threshold \$1;
#X floatatom 49 98 5 0 0 0 - - -;
#X obj 56 67 hsl 128 15 0 1 0 0 empty empty empty -2 -8 0 10 -262144
-1 -1 0 1;
#X msg 248 138 shift \$1;
#X floatatom 249 109 5 0 511 0 - - -;
#X text 246 84 shift bin energy upward;
#X connect 1 0 0 0;
#X connect 2 0 1 0;
#X connect 3 0 2 0;
#X connect 4 0 0 0;
#X connect 5 0 4 0;
#X restore 337 255 pd control;
#X obj 213 295 fftease/schmear~;
#X obj 213 339 ./gain.dsp~;
#X text 104 105 [schmear~] convolves the amplitude spectrum with a
user-supplied impulse response \, thus smearing the spectrum \, for
those times when you need a New York moment., f 51;
#X obj 57 37 ./icon;
#X obj 254 49 fftease/schmear~;
#X text 381 50 - Spectral smearing;
#X connect 0 0 6 0;
#X connect 1 0 6 0;
#X connect 2 0 1 0;
#X connect 3 0 2 0;
#X connect 6 0 7 0;
