#N canvas 471 238 450 535 12;
#X obj 101 3 inlet;
#X obj 101 118 bng 15 250 50 0 \$0-bang \$0-bang empty 17 7 0 10 -262144
-1 -1;
#X obj 164 118 tgl 15 0 \$0-float \$0-float empty 17 7 0 10 -262144
-1 -1 0 1;
#X obj 105 250 openpanel;
#X obj 105 275 symbol;
#X msg 105 300 open \$1 \, 1;
#X obj 105 325 readsf~;
#X obj 165 326 spigot;
#X obj 215 172 t f f;
#X obj 105 350 outlet~;
#X obj 101 100 s \$0-bang;
#X obj 173 53 s \$0-float;
#X obj 105 196 r \$0-bang;
#X obj 215 147 r \$0-float;
#X obj 215 221 select 1;
#X obj 215 196 != 0;
#X obj 101 28 route bang float symbol;
#X obj 206 78 symbol;
#X connect 0 0 16 0;
#X connect 3 0 4 0;
#X connect 4 0 5 0;
#X connect 5 0 6 0;
#X connect 6 0 9 0;
#X connect 6 1 7 0;
#X connect 7 0 4 0;
#X connect 8 0 15 0;
#X connect 8 1 7 1;
#X connect 12 0 3 0;
#X connect 13 0 8 0;
#X connect 14 0 4 0;
#X connect 14 1 6 0;
#X connect 15 0 14 0;
#X connect 16 0 10 0;
#X connect 16 1 11 0;
#X connect 16 2 17 0;
#X connect 17 0 4 1;
#X coords 0 -1 1 1 85 35 1 100 100;
